<svg xmlns="http://www.w3.org/2000/svg" width="216" height="89" fill-rule="evenodd" xmlns:v="https://vecta.io/nano"><path d="M115.535 33.913c8.82-.05 9.866 6.014 19.731 6.014s32.436-7.59 20.628-15.464c-3.81.286-4.858 4.156-6.277 3.436-.563-.285-3.039-3.3-4.484-6.014-.818-1.536 4.484-3.15 4.484-5.153 0-1.576 3.95-3.024 5.38-3.436.748-.215 2.319-4.296 2.691-4.296.672 0 2.238 3.508 3.59 3.436 5.411-.286 13.451 11.162 13.451 17.183 0 6.34-1.288 15.227 0 17.182 2.019 3.066 32.586 4.295 34.977 5.153s6.576 7.303 6.279 8.591-1.646 1.29-2.69.86-2.01-5.642-6.28-6.873c-6.949-2.005-35.335 1.119-37.666-1.348-1.8-1.903-8.072-.86-8.072-.86s1.187 2.134.896 3.067c-.428 1.37-1.732 1.26-1.794 3.436-.08 2.827 20.461 17.384 19.731 22.337-.22 1.484-2.466 1.432-3.588.86-1.325-.678-3.203-4.72-5.381-6.874-9.205-9.103-16.227-8.125-18.833-17.182-1.927-6.693-11.748-.842-18.834-1.718-6.951-.86-17.49-4.439-19.731-4.296s-5.083 1.146-3.588 1.719 16.876 2.736 17.937 4.295c1.121 1.647.449 3.15-1.793 2.577s-19.593-5.39-29.597-4.296c-2.615.287-3.288-2.434-1.793-3.436s4.036-1.646 2.69-5.153c-6.796 2.443-26.532 14.246-26.009 22.336.606 9.36 16.67 13.811 19.731 14.605 3.588.93 17.788 1.432 20.628 0 2.467-.788 2.915 2.649 0 3.437-1.357.366-8.356 1.265-14.35.859-8.446-.573-29.259-7.867-29.597-20.619-.224-8.448 18.867-20.437 23.318-23.196 5.082-3.15 14.35-11.113 24.215-11.17zm34.081-15.464c.57.437 2.31-.59 1.794-1.718-.955 0-2.074 1.504-1.794 1.718z" fill="#000" fill-rule="nonzero"/><path d="M8.074 15.48c.432 0 .744.06.935.178s.287.29.287.514c0 .1-.04.196-.12.29s-.188.195-.324.308c-.21.137-.454.323-.732.56l-.916.822a5.033 5.033 0 0 0-.398.271l-.473.383-.833.981-1.111 1.317c-.16.212-.284.449-.37.71a2.59 2.59 0 0 0-.13.822c0 .35.074.658.222.925l.463.832a10.99 10.99 0 0 0 .5.953l.796 1.382a.99.99 0 0 1 .102.178c.031.068.047.134.047.196 0 .262-.161.455-.482.58s-.809.186-1.463.186c-.247 0-.53-.174-.852-.523s-.691-.884-1.11-1.607c-.371-.685-.649-1.27-.834-1.756S1 23.092 1 22.767a3.2 3.2 0 0 1 .083-.728 1.77 1.77 0 0 1 .287-.636c.198-.311.571-.766 1.12-1.364a54.588 54.588 0 0 1 2.177-2.204l.787-.654.805-.654c.062-.05.13-.112.204-.187s.173-.156.296-.243l.75-.346.565-.27zm4.278 1.346l.074-.169c.234-.211.488-.36.76-.448a2.82 2.82 0 0 1 .87-.13c.42 0 .731.055.935.167a.557.557 0 0 1 .305.524c0 .074-.037.146-.11.214s-.174.14-.297.215l-.685.337-1.5 1.177-.25.243c-.105.1-.226.199-.361.299l-.232.168-.25.187-.537.86-1.13 1.176c-.246.25-.438.508-.574.776a1.817 1.817 0 0 0-.203.831c0 .212.09.473.268.785s.275.567.287.766a2.99 2.99 0 0 1 .426.448c.16.2.321.424.482.673.197.286.342.523.435.71s.139.324.139.411c0 .137-.145.296-.435.476s-.72.377-1.288.589c-.135-.012-.317-.112-.546-.299s-.503-.48-.824-.878l-1.176-1.355c-.055-.043-.176-.414-.36-1.111l-.223-.832c-.062-.205-.093-.346-.093-.42 0-.125.068-.34.204-.645s.346-.694.63-1.168a.735.735 0 0 0 .185-.112 8.77 8.77 0 0 0 .222-.187c.222-.36.537-.74.944-1.14s.914-.821 1.519-1.27c.173-.162.407-.358.704-.588l1.018-.832c.074-.037.164-.09.269-.159a6.3 6.3 0 0 0 .398-.29zM34.37 5.578a.417.417 0 0 1-.166.327.566.566 0 0 0-.204.308c-.025.112-.003.246.065.402s.09.27.065.345a2.957 2.957 0 0 1-.269.729c-.105.187-.176.28-.213.28a9.75 9.75 0 0 1-.444-.01 7.828 7.828 0 0 0-.352-.008c-.346-.013-.58-.047-.704-.103a1.047 1.047 0 0 1-.315-.215 2.154 2.154 0 0 0-.49-.346c-.216-.118-.658-.246-1.324-.383a8.074 8.074 0 0 0-1.445-.177c-.407-.006-1.228.034-2.463.121-.26.112-.435.209-.528.29a2.65 2.65 0 0 0-.305.327c-.148.174-.26.392-.334.654l-.203.691-.269.888-.268.924-.223.935-.203.99-.176.831-.176.907a27.416 27.416 0 0 0-.296 1.588c.074.074.188.115.342.121l.398.028a3.01 3.01 0 0 0 .463.038 2.86 2.86 0 0 1 .574.074l1.112.187a7.96 7.96 0 0 1 1.037.206l1.25.392 1.101.392 1.556.58a9.08 9.08 0 0 1 1.167.598 3.7 3.7 0 0 1 .74.597 3.31 3.31 0 0 1 .482.654 2.82 2.82 0 0 1 .278.85c.049.306.08.626.092.963a2.98 2.98 0 0 1-.176 1.065 6.14 6.14 0 0 1-.565 1.196 5.407 5.407 0 0 1-.74.952c-.309.324-.655.642-1.037.953a.95.95 0 0 0-.25.29.86.86 0 0 1-.269.29c-.136.1-.302.183-.5.252s-.37.146-.518.233a4.32 4.32 0 0 0-.426.271 3.4 3.4 0 0 1-.445.271 5.753 5.753 0 0 1-.555.243 7.957 7.957 0 0 0-.574.243c-.21.1-.45.171-.723.215a3.966 3.966 0 0 0-.796.215l-.704.252-.759.234a2.96 2.96 0 0 0-.574.27 2.12 2.12 0 0 1-.63.253.761.761 0 0 1-.37-.019.754.754 0 0 0-.407 0 .755.755 0 0 0-.334.187.604.604 0 0 1-.314.168c-.16.025-.257.05-.287.075s-.12.05-.269.075l-.056.7-.037.57c-.012.174-.185.32-.518.44s-.63.158-.889.12a1.316 1.316 0 0 1-.435-.158.794.794 0 0 1-.324-.346 1.895 1.895 0 0 1-.185-.86l-.612.075a4.327 4.327 0 0 1-.537.038c-.333 0-.605-.035-.814-.103s-.321-.19-.334-.364a.556.556 0 0 1 .111-.365 3.33 3.33 0 0 1 .26-.345 1.45 1.45 0 0 1 .287-.253 3.383 3.383 0 0 1 .648-.345 4.72 4.72 0 0 0 .305-.131l.297-.122.314-.121c0-.112.013-.237.038-.374s.037-.267.037-.392l-.01-.346a6.311 6.311 0 0 1-.009-.327c0-.124.028-.252.083-.383a.976.976 0 0 0 .084-.383 1.34 1.34 0 0 0-.037-.29 1.285 1.285 0 0 1-.037-.289l.12-1.485.139-1.467.185-2.588c.062-.928.16-1.616.296-2.064-.753-.05-1.311-.215-1.676-.496s-.509-.57-.435-.868c.05-.162.16-.324.334-.486s.518-.243 1.037-.243a3.49 3.49 0 0 1 .472.028c.13.019.287.01.472-.028.037-.262.09-.508.157-.738a5.62 5.62 0 0 0 .158-.7 7.12 7.12 0 0 1 .26-1.047 7.91 7.91 0 0 0 .258-.99l.213-.972.213-1.028.148-.7.186-.757a.49.49 0 0 1 .102-.15l.194-.224a.642.642 0 0 0 .093-.196.338.338 0 0 1 .11-.177.395.395 0 0 0 .121-.14.492.492 0 0 1 .139-.16.434.434 0 0 0 .13-.158.35.35 0 0 1 .11-.14c.087-.063.078-.119-.027-.168s-.114-.106-.028-.169l-.268.01-.362.028-.601.075a6.052 6.052 0 0 1-.695.093l-1 .13-.944.15c-.395.062-.698.206-.908.43s-.364.355-.463.392c-.074.025-.16-.062-.259-.261s-.148-.343-.148-.43a.85.85 0 0 1 .065-.299l.176-.43a3.17 3.17 0 0 1 .139-.317 2.22 2.22 0 0 1 .176-.3l.324-.41c.105-.125.182-.193.231-.206A79.33 79.33 0 0 1 20 5.111a49.166 49.166 0 0 1 2.426-.673l2.546-.542a45.304 45.304 0 0 1 2.991-.411 10.12 10.12 0 0 1 1.194-.075l1.287-.037.64-.056.657-.038a1.4 1.4 0 0 1 .416.066c.142.043.275.065.399.065.395 0 .722.075.981.224s.457.35.593.598a1.66 1.66 0 0 1 .203.617 6.3 6.3 0 0 1 .037.729zm-4.148 15.695c-.012-.848-.62-1.501-1.824-1.962s-2.805-.922-4.805-1.383c-.247-.05-.392-.068-.436-.056s-.176 0-.398-.037a15.65 15.65 0 0 1-.305 1.541l-.306 1.523c-.05.299-.08.6-.092.906a17.681 17.681 0 0 1-.139 1.644 99.5 99.5 0 0 1-.102.738c-.037.262-.056.511-.056.748l-.037.747c-.012.125-.009.255.01.392a3.02 3.02 0 0 1 .027.393 2.11 2.11 0 0 1-.018.27 1.944 1.944 0 0 0-.019.253c.334-.112.547-.196.64-.252a4.52 4.52 0 0 1 .564-.253l.565-.242.565-.262.824-.42.787-.42a29.02 29.02 0 0 0 1.648-.972l1.083-.757.861-.72c.309-.286.547-.554.713-.803s.25-.455.25-.616zm4.204.41a1.85 1.85 0 0 1-.074-.56c0-.411.05-.763.148-1.056s.247-.538.444-.738c.05-.05.176-.124.38-.224l.806-.355c.234-.112.422-.246.564-.402a.892.892 0 0 0 .232-.57c.037-.174.111-.373.222-.597l.389-.729c.05-.075.198-.505.444-1.29l1.038-3.456.37-1.196.315-.86c.395-1.058.719-1.752.972-2.082l.565-.813V6.66l-.574-.915.722-.841.926-.187c.185-.025.355-.2.51-.523s.422-.679.805-1.065c.086-.025.225-.103.416-.234l.732-.55a4.43 4.43 0 0 1 .666-.468c.186-.1.328-.15.426-.15.334 0 .574.07.723.206a.703.703 0 0 1 .222.542c0 .274-.142.673-.426 1.196s-.426.922-.426 1.196c0 .124.028.227.083.308a.39.39 0 0 0 .195.159l2.222 1.214c.123.05.235.246.333.589s.18.813.241 1.41l.176 1.243.065.794a460.36 460.36 0 0 0-.26 1.626l.408 2.204-.24 2.242a.4.4 0 0 0 .045.197c.031.056.078.09.14.102.21.013.367.069.472.169a.54.54 0 0 1 .157.41c0 .225-.034.402-.102.533a.765.765 0 0 1-.287.308l-.38.262a1.155 1.155 0 0 0-.194.187l.24 1.158-.333 2.653c0 .225-.018.511-.055.86l-.167 1.214-.278.841c-.061.224-.092.374-.092.449l.167.672-.232 1.01-.231.99c-.136.435-.315.756-.537.962a1.11 1.11 0 0 1-.778.308.39.39 0 0 1-.361-.215c-.08-.143-.12-.358-.12-.644a3.16 3.16 0 0 1 .064-.542c.043-.237.065-.418.065-.542 0-.087-.012-.206-.037-.355a2.447 2.447 0 0 1-.037-.392c0-.35.034-.907.102-1.673l.102-1.728-.186-.654a6.83 6.83 0 0 0 .074-.72 4.1 4.1 0 0 0-.018-.681l.278-.505-.241-1.737-.13-.056a.98.98 0 0 0-.324.084 3.872 3.872 0 0 0-.528.27 5.39 5.39 0 0 1-.694.16c-.315.055-.731.09-1.25.102l-.63.299a8.983 8.983 0 0 0-1.074.327l-1.5.57c-.333.162-.639.29-.916.383s-.51.14-.695.14a.473.473 0 0 0-.37.168 1.267 1.267 0 0 0-.24.486c-.038.2-.127.473-.27.822l-.564 1.308-.204.635a31.21 31.21 0 0 0-.296 1.065l-.26.608-.333.85a3.98 3.98 0 0 1-.046.55l-.139.758-.25.663-.398.887a.944.944 0 0 1-.426.44c-.185.093-.426.14-.722.14a.599.599 0 0 1-.491-.215c-.117-.144-.176-.365-.176-.664 0-.323.037-.694.111-1.111s.191-.875.352-1.374l.444-1.606c.124-.412.192-.717.204-.916a6.93 6.93 0 0 0 .167-.467l.259-.822c.111-.312.216-.667.315-1.065l-.093-.15-.592.094c-.136-.013-.235-.069-.297-.168a.737.737 0 0 1-.092-.393c0-.087.012-.184.037-.29l.11-.382zm6.722-3.437c.284 0 .704-.069 1.26-.206s.975-.205 1.259-.205l.518.093.908-.215.907-.215a.493.493 0 0 0 .278-.14.39.39 0 0 0 .092-.27 14.02 14.02 0 0 1-.037-.767c0-.237.016-.501.047-.794s.077-.595.139-.906l-.223-.84.074-.767-.12-.775a2.25 2.25 0 0 1-.01-.608 12.374 12.374 0 0 0-.333-.598l-.38-.607-.379-.588a1.816 1.816 0 0 0-.555-.523 1.223 1.223 0 0 0-.612-.169c-.246 0-.5.2-.759.598s-.5 1.003-.722 1.813a6.49 6.49 0 0 1-.306.616l-.713 1.215c-.049.473-.216 1.062-.5 1.765a26.104 26.104 0 0 1-1.185 2.476.5.5 0 0 0-.102.224 2.17 2.17 0 0 0-.009.206c0 .087.022.152.065.196s.108.065.194.065c.124 0 .325-.012.602-.037l.602-.037zm28.63-12.612v.616a3.18 3.18 0 0 1-.056.617.68.68 0 0 1-.12.299c-.068.1-.114.187-.139.261-.074.212-.173.371-.296.477s-.204.159-.241.159c-.086 0-.16.053-.222.158s-.13.16-.204.16c-.086 0-.191-.06-.315-.178s-.216-.178-.278-.178a2.782 2.782 0 0 1-.638-.15 1.659 1.659 0 0 1-.38-.205 5.85 5.85 0 0 0-.5-.336c-.185-.112-.531-.224-1.037-.336a8.642 8.642 0 0 1-.5-.094 3.715 3.715 0 0 0-.519-.074c-.11 0-.24.015-.389.046a1.993 1.993 0 0 1-.407.047.728.728 0 0 1-.343-.093.761.761 0 0 0-.36-.094 7.02 7.02 0 0 0-.695.037l-.75.057a3.64 3.64 0 0 0-.352.018 3.687 3.687 0 0 1-.37.019 1.7 1.7 0 0 1-.13.187 1.7 1.7 0 0 0-.13.187c-.049.074-.12.152-.213.233a.795.795 0 0 0-.194.234 1.007 1.007 0 0 0-.083.252 2.19 2.19 0 0 1-.065.252l-.306.71-.287.785a12.73 12.73 0 0 0-.231.757l-.306 1.167-.398 1.757a54.132 54.132 0 0 0-.454 2.204l-.277 1.42a48.707 48.707 0 0 0-.278 1.533l-.232 1.26-.231 1.3-.49 2.933a80.02 80.02 0 0 0-.436 2.877l-.176 1.41-.157 1.355c0 .113.04.24.12.384s.114.27.102.383a.5.5 0 0 1-.093.298.505.505 0 0 0-.092.3c0 .074-.056.183-.167.326s-.204.234-.278.271c-.037.013-.13.075-.278.187s-.253.168-.314.168c-.074.013-.149-.018-.223-.093s-.142-.112-.203-.112c-.05 0-.115-.044-.195-.131a.586.586 0 0 0-.231-.168c-.124-.038-.269-.13-.435-.28s-.269-.268-.306-.355c-.05-.1-.09-.222-.12-.365a2.266 2.266 0 0 1-.047-.476l.01-.486.009-.486c0-.236.055-.48.167-.728s.166-.493.166-.73c0-.46.043-.896.13-1.307s.142-.847.166-1.308c0-.311.038-.629.112-.953a6.62 6.62 0 0 0 .148-.953l.13-1.635.129-1.653.111-.934.111-.953.093-.981.148-1.019c.037-.224.09-.445.157-.663a3.58 3.58 0 0 0 .14-.644 3.69 3.69 0 0 0 .064-.589c.006-.206.028-.402.065-.589.037-.224.05-.454.037-.69s0-.48.037-.73a1.93 1.93 0 0 1 .204-.485c.098-.175.16-.343.185-.505a7.8 7.8 0 0 1 .092-.467 7.8 7.8 0 0 0 .093-.467c0-.025.03-.075.093-.15a3.19 3.19 0 0 0 .222-.317c.062-.112.167-.25.315-.411l.389-.43c.185-.212.287-.349.305-.411s.12-.187.306-.374c.037-.037.13-.1.277-.187a1.74 1.74 0 0 0 .278-.186c.037-.038.034-.097-.009-.178s-.053-.134-.028-.159c-.123 0-.222-.01-.296-.028a1.093 1.093 0 0 0-.333-.01l-.5.066-.5.066-.76.093-.703.094a.3.3 0 0 1-.167-.066c-.062-.043-.117-.059-.167-.047-.074.013-.145.063-.213.15s-.126.13-.176.13c-.037.013-.077.072-.12.178s-.083.165-.12.178c-.05.012-.108-.013-.176-.075s-.114-.093-.14-.093c-.073.024-.113.018-.12-.02a1.3 1.3 0 0 1-.009-.186c0-.087.025-.187.074-.299l.204-.43c.062-.124.136-.252.222-.383l.24-.364a2.4 2.4 0 0 1 .27-.327c.092-.093.163-.146.212-.159.062-.012.118-.056.167-.13a.375.375 0 0 1 .167-.15.392.392 0 0 1 .203.019.335.335 0 0 0 .186.018l.731-.252.732-.252.88-.262 1.008-.28a.862.862 0 0 0 .343-.178.85.85 0 0 1 .38-.177.392.392 0 0 1 .203.019.644.644 0 0 0 .204.037 33.52 33.52 0 0 1 2.445-.44l2.963-.326a3.67 3.67 0 0 0 .74-.122 3.06 3.06 0 0 1 .778-.102.98.98 0 0 1 .296.046.98.98 0 0 0 .297.047l.426-.01.444-.009a2.357 2.357 0 0 1 .778.131c.062.025.099.094.11.206s.044.187.093.224a.49.49 0 0 0 .278.075c.111 0 .185.037.222.112.136.224.226.489.269.794a3.83 3.83 0 0 1 .028.869zm-.537 14.555c0-.262-.062-.673-.185-1.233s-.186-.984-.186-1.27a9.4 9.4 0 0 1 .047-.758l.046-.756-.083-2.084a38.22 38.22 0 0 1-.084-2.083l.13-2.99.37-4.297c.074-.598.207-1.052.398-1.364s.448-.467.769-.467c.111 0 .22.075.324.224s.22.374.343.673l.851.747a1.85 1.85 0 0 1 .5.738c.112.293.167.639.167 1.037 0 .362-.077.875-.231 1.542s-.232 1.168-.232 1.504l-.065 1.635c-.043.442-.108.781-.194 1.018l-.204.598.148 1.252-.074 2.223c0 .76.062 1.542.185 2.345s.29 1.61.5 2.42c.297 1.096.658 1.921 1.084 2.475s.904.832 1.435.832a1.48 1.48 0 0 0 .75-.196c.228-.131.448-.333.657-.608l.463-.69.445-.692c.16-.2.333-.452.518-.757l.611-1.093.704-2.26.778-2.299.24-.962.297-1.355c.235-.623.466-1.488.694-2.597l.769-4.036.361-.953.49-1.345.279-.878.574-1.513a1.21 1.21 0 0 1 .537-.682c.259-.156.58-.234.963-.234.234 0 .404.153.509.458s.157.769.157 1.392c0 1.183-.145 2.631-.435 4.344S84.617 10.865 84 13.07l-.176.757a47.2 47.2 0 0 1-.287 1.037c-.012.236-.04.507-.083.813a25.19 25.19 0 0 1-.176 1.055 20.039 20.039 0 0 0-.491 2.242l-.306 2.485c0 .125-.021.312-.064.56l-.176.898a8.02 8.02 0 0 0-.185 1.7l.11.953a3.87 3.87 0 0 1 .362.439c.08.118.12.215.12.29-.074.224-.2.467-.38.728a6.79 6.79 0 0 1-.694.841 3.951 3.951 0 0 1-.87.766c-.284.175-.544.262-.778.262-.222 0-.438-.14-.648-.42s-.315-.546-.315-.795v-.15a2.85 2.85 0 0 0 .13-.429.478.478 0 0 0-.047-.196 1.418 1.418 0 0 1-.083-.271l.111-.28.148-.43a6.55 6.55 0 0 1-.083-.224 2.982 2.982 0 0 0-.139-.318 2.92 2.92 0 0 0 .074-.27l.111-.403c0-.1-.012-.224-.037-.373a81.679 81.679 0 0 1 .148-1.01l.12-.532c.032-.143.047-.252.047-.327a.63.63 0 0 0-.046-.243c-.031-.074-.071-.124-.12-.15-.075.026-.177.12-.306.281s-.275.386-.435.673a13.55 13.55 0 0 1-.51.813l-.287.42-.074.262-.889 1.149-.592.644a4.195 4.195 0 0 1-.843.58c-.327.174-.719.323-1.176.448a4.46 4.46 0 0 0-.648.187c-.47 0-.883-.063-1.24-.187s-.63-.299-.816-.523a8.973 8.973 0 0 1-1.685-2.971c-.37-1.096-.555-2.317-.555-3.662zm20.463-12.63c-.05-.175-.164-.409-.343-.701l-.676-1.112a17.18 17.18 0 0 1-.63-.962c-.135-.23-.203-.39-.203-.477 0-.349.398-.925 1.194-1.728s1.38-1.205 1.75-1.205c.272.112.47.224.593.336h.555l1.028.486L94 2.663c1 .46 1.623.831 1.87 1.112s.642.594 1.186.943c.074.1.222.265.444.495l.907.87c.05.037.112.105.186.205l.24.317 1.343 1.757c.364.535.639 1.033.824 1.494a8.76 8.76 0 0 1 .528 1.794c.117.635.176 1.327.176 2.074 0 1.383-.185 2.547-.556 3.494s-.944 1.65-1.722 2.111a2.468 2.468 0 0 1-.315.215 5.13 5.13 0 0 0-.407.271l-.241.243c-.21.237-.559.489-1.046.757s-1.127.557-1.917.869l-3.315 1.345-.824.392c-.228.1-.404.15-.528.15-.358 0-.574.025-.648.074s-.142.548-.204 1.495l-.11 1.794c0 .212.064.458.194.738s.33.582.602.906a6.8 6.8 0 0 1-.38.729 8.29 8.29 0 0 1-.528.766c-.222.336-.45.588-.685.757s-.457.252-.667.252c-.407 0-.706-.218-.898-.654s-.287-1.09-.287-1.962c0-.274.043-.62.13-1.037l.389-1.541-.093-1.084a6.765 6.765 0 0 1-.926-.523c-.222-.1-.38-.212-.472-.337a.625.625 0 0 1-.139-.373c0-.15.3-.37.898-.664s.898-.682.898-1.167c0-.137-.027-.337-.083-.598a3.116 3.116 0 0 1-.083-.58l.37-2.186c.025-.074.056-.299.093-.672l.148-1.607.167-.803.24-1.122-.13-.672 1.075-5.942zm1.518-2.224c-.074 0-.126.018-.157.056s-.046.093-.046.168c1.456 1.532 2.185 2.666 2.185 3.4 0 .225-.238 1.193-.713 2.906l-.972 3.11.148.786a44.49 44.49 0 0 0-.75 3.241c-.167.903-.25 1.623-.25 2.158 0 .137.027.237.083.3a.294.294 0 0 0 .231.093c.124 0 .346-.056.667-.168s.735-.306 1.24-.58l.964-.485.981-.467.473-.29.583-.42.704-.552.333-.27c.53-.374.932-.841 1.204-1.402s.407-1.227.407-2c0-.46-.052-.927-.157-1.4a8.5 8.5 0 0 0-.473-1.458l-.037-.448a.945.945 0 0 0-.13-.215l-.203-.271a2.255 2.255 0 0 1-.24-.299 2.207 2.207 0 0 1-.241-.486c-.198-.386-.556-.866-1.075-1.439s-1.21-1.233-2.074-1.98l-.333-.308a31.53 31.53 0 0 0-.407-.383l-.834-.383a52.766 52.766 0 0 1-1.11-.514zm10.963 16.349a1.85 1.85 0 0 1-.074-.561c0-.411.05-.763.148-1.056s.247-.538.445-.738c.05-.05.176-.124.38-.224l.805-.355c.234-.112.423-.246.565-.402a.892.892 0 0 0 .231-.57c.037-.174.111-.373.222-.597l.39-.729c.049-.075.197-.505.444-1.29l1.037-3.456.37-1.196.315-.86c.395-1.058.72-1.752.972-2.082l.565-.813V6.66l-.574-.915.722-.841.926-.187c.185-.025.355-.2.51-.523s.422-.679.805-1.065c.086-.025.225-.103.417-.234l.731-.55a4.43 4.43 0 0 1 .667-.468c.185-.1.327-.15.426-.15.333 0 .574.07.722.206a.703.703 0 0 1 .222.542c0 .274-.142.673-.426 1.196s-.426.922-.426 1.196a.53.53 0 0 0 .084.308.39.39 0 0 0 .194.159l2.222 1.214c.124.05.235.246.334.589s.179.813.24 1.41l.176 1.243.065.794a460.36 460.36 0 0 0-.26 1.626l.408 2.204-.24 2.242a.4.4 0 0 0 .046.197c.03.056.077.09.139.102.21.013.367.069.472.169a.54.54 0 0 1 .157.41c0 .225-.034.402-.102.533a.765.765 0 0 1-.287.308l-.38.262a1.155 1.155 0 0 0-.194.187l.241 1.158-.333 2.653a8.48 8.48 0 0 1-.056.86l-.167 1.214-.277.841c-.062.224-.093.374-.093.449l.167.672-.232 1.01-.231.99c-.136.435-.315.756-.537.962a1.11 1.11 0 0 1-.778.308.39.39 0 0 1-.361-.215c-.08-.143-.12-.358-.12-.644 0-.125.021-.306.064-.542s.065-.418.065-.542c0-.087-.012-.206-.037-.355a2.447 2.447 0 0 1-.037-.392c0-.35.034-.907.102-1.673l.102-1.728a45.35 45.35 0 0 1-.185-.654c.037-.237.061-.476.074-.72a4.1 4.1 0 0 0-.019-.681l.278-.505-.24-1.737-.13-.056a.98.98 0 0 0-.325.084 3.872 3.872 0 0 0-.527.27c-.148.05-.38.103-.695.16s-.731.09-1.25.102l-.63.299a8.983 8.983 0 0 0-1.073.327l-1.5.57c-.334.162-.64.29-.917.383s-.51.14-.695.14a.473.473 0 0 0-.37.168 1.267 1.267 0 0 0-.24.486c-.038.2-.127.473-.27.822L105 24.616l-.204.635-.296 1.065-.26.608-.333.85a3.98 3.98 0 0 1-.046.55l-.139.758-.25.663-.398.887a.944.944 0 0 1-.426.44c-.185.093-.426.14-.722.14a.599.599 0 0 1-.49-.215c-.118-.144-.177-.365-.177-.664 0-.323.037-.694.111-1.111s.192-.875.352-1.374l.445-1.606c.123-.412.191-.717.203-.916a7.01 7.01 0 0 0 .167-.467l.26-.822c.11-.312.215-.667.314-1.065l-.092-.15-.593.094c-.136-.013-.235-.069-.296-.168a.737.737 0 0 1-.093-.393c0-.087.012-.184.037-.29l.111-.382zm6.722-3.438c.284 0 .704-.069 1.26-.206s.975-.205 1.259-.205l.518.093.908-.215.907-.215a.493.493 0 0 0 .278-.14.39.39 0 0 0 .093-.27 14.019 14.019 0 0 1-.037-.767 7.59 7.59 0 0 1 .046-.794c.03-.293.077-.595.139-.906l-.222-.84.074-.767-.12-.775a2.25 2.25 0 0 1-.01-.608 12.373 12.373 0 0 0-.333-.598l-.38-.607-.38-.588a1.816 1.816 0 0 0-.555-.523 1.223 1.223 0 0 0-.611-.169c-.247 0-.5.2-.76.598s-.5 1.003-.722 1.813c-.037.1-.139.305-.305.616l-.713 1.215c-.05.473-.216 1.062-.5 1.765a26.104 26.104 0 0 1-1.185 2.476.5.5 0 0 0-.102.224l-.01.206c0 .087.022.152.065.196s.108.065.195.065c.123 0 .324-.012.602-.037l.601-.037zm23.241 5.605l-1.204 1.177-1.24 1.14a11.37 11.37 0 0 1-1.398 1.055 6.91 6.91 0 0 1-1.38.682c-.407 0-.716-.052-.926-.158a.536.536 0 0 1-.315-.514c.457-.498.92-.934 1.39-1.308l1.592-1.308a118.733 118.733 0 0 1 1.944-2.28c.16-.211.281-.442.361-.69s.12-.53.12-.842c0-.199-.015-.373-.046-.523a1.692 1.692 0 0 0-.139-.41 31.939 31.939 0 0 0-.481-.86c-.111-.25-.272-.564-.482-.944l-.796-1.354-.102-.206a.418.418 0 0 1-.046-.187c0-.274.164-.473.49-.598s.819-.187 1.473-.187c.222 0 .497.178.824.533s.688.894 1.083 1.616c.383.685.667 1.274.852 1.766s.278.881.278 1.168c0 .373-.093.763-.278 1.167a5.212 5.212 0 0 1-.833 1.243 3.25 3.25 0 0 0-.315.327l-.426.495zm-9.5 2.747l-.074.149a2.326 2.326 0 0 1-1.611.617c-.407 0-.72-.06-.935-.178a.587.587 0 0 1-.324-.551c.123-.212.259-.355.407-.43.21-.087.432-.193.667-.317l1.537-1.196.231-.215.38-.327.213-.13c.08-.05.163-.12.25-.206l.518-.86 1.13-1.158c.272-.25.472-.508.602-.776a1.88 1.88 0 0 0 .194-.831c0-.224-.086-.492-.259-.804s-.278-.56-.315-.747c-.234-.224-.534-.613-.898-1.168s-.546-.912-.546-1.074c0-.15.148-.312.444-.486s.722-.367 1.278-.58l.185.02c.037.05.093.112.167.186l.26.262c.16.125.351.299.573.523l.76.804a4.65 4.65 0 0 0 .296.504l.278.206c.061.037.194.408.398 1.111l.305 1.243c0 .15-.07.374-.213.672s-.355.686-.639 1.159a5.46 5.46 0 0 0-.407.318c-.21.336-.522.703-.935 1.102s-.923.822-1.528 1.27l-.694.608-1.028.85a1.242 1.242 0 0 0-.278.15l-.389.28z" stroke="#d0021b" stroke-width="2" fill="#d0021b"/><path d="M21.568 39.276a.82.82 0 0 1 .175.262.746.746 0 0 1 .056.283c0 .207-.062.43-.185.669a3.21 3.21 0 0 1-.507.703l-.252.27a3.66 3.66 0 0 1-.28.261l-.331.283-.332.269a.624.624 0 0 0-.171.19.547.547 0 0 1-.172.182.993.993 0 0 1-.258.135.914.914 0 0 0-.224.107.15.15 0 0 0-.06.09c-.01.04-.028.068-.052.082a.9.9 0 0 1 .084.048.784.784 0 0 0 .084.049 2.35 2.35 0 0 1 .21.11 5.01 5.01 0 0 1 .545.334c.08.058.175.135.286.231l.252.235a2.09 2.09 0 0 1 .217.248c.084.106.151.217.202.335s.091.23.12.341c.004.028-.005.058-.029.09s-.032.062-.028.09a.44.44 0 0 0 .07.158.285.285 0 0 1 .056.159 1.48 1.48 0 0 1-.115.555c-.077.19-.188.376-.332.555-.089.11-.192.22-.311.331s-.25.216-.395.317a5.947 5.947 0 0 1-1.307.683c-.28.106-.553.187-.821.245a3.42 3.42 0 0 1-.696.086c-.158 0-.341-.029-.548-.086a5.329 5.329 0 0 1-.612-.21 1.091 1.091 0 0 1-.14-.06 3.672 3.672 0 0 1-.14-.072.429.429 0 0 1-.167-.127.689.689 0 0 0-.14-.135.691.691 0 0 0-.168-.075.28.28 0 0 1-.132-.076c-.033-.032-.025-.104.024-.214s.099-.159.15-.145a.502.502 0 0 0 .12 0 .638.638 0 0 1 .16.007c.037.01.077.029.119.059s.086.047.132.051l.28.038a2.35 2.35 0 0 0 .287.017c.07 0 .124.013.164.038a.27.27 0 0 0 .164.031c.089-.004.2-.027.336-.069l.363-.096a.156.156 0 0 1 .087.01c.026.012.06.013.102.004.102-.023.221-.065.356-.124l.391-.166c.14-.05.29-.118.451-.203s.311-.176.451-.273a2.264 2.264 0 0 0 .636-.648.495.495 0 0 0 .094-.276 11.69 11.69 0 0 0-.01-.262c0-.032-.01-.07-.028-.114a.959.959 0 0 0-.136-.228 1.309 1.309 0 0 0-.329-.292 1.49 1.49 0 0 0-.304-.152 3.743 3.743 0 0 1-.346-.135 5.487 5.487 0 0 0-.367-.148 61.588 61.588 0 0 0-.447-.159 3.707 3.707 0 0 0-.398-.117.373.373 0 0 0-.095.066.507.507 0 0 1-.101.072.733.733 0 0 1-.192.066.443.443 0 0 1-.165.003c-.013 0-.029-.013-.045-.038s-.034-.04-.052-.045a.396.396 0 0 0-.105 0 .158.158 0 0 1-.098-.013.341.341 0 0 0-.087-.042c-.04-.014-.067-.032-.08-.055a.23.23 0 0 1-.06-.107.56.56 0 0 0-.039-.107.725.725 0 0 1-.108-.196c-.02-.062-.017-.107.01-.135a2.13 2.13 0 0 0 .179-.203l.185-.245.227-.3c.072-.09.125-.135.157-.135a2.78 2.78 0 0 0 .21-.013c.103-.01.182-.01.238 0s.09.036.104.069.052.055.112.069a1.34 1.34 0 0 0 .203.024c.07.002.133.01.189.024s.094.034.115.062.05.044.087.048l.448-.427a12.328 12.328 0 0 0 .776-.817 6.983 6.983 0 0 0 .485-.625l.143-.207a.609.609 0 0 0 .102-.258.477.477 0 0 0-.018-.197.342.342 0 0 0-.188-.18 1.105 1.105 0 0 0-.329-.082 2.77 2.77 0 0 0-.465-.017l-.457.024a6.661 6.661 0 0 0-.577.069 12.71 12.71 0 0 0-.59.11 6.83 6.83 0 0 0-.595.17 5.8 5.8 0 0 0-.573.223.115.115 0 0 0-.08.07.16.16 0 0 1-.06.075.255.255 0 0 1-.111.055.31.31 0 0 0-.105.042.367.367 0 0 1-.143.072c-.05.012-.118-.008-.207-.058-.032-.014-.05-.046-.056-.097a.425.425 0 0 1 .021-.166c.005-.027.025-.055.06-.082a.224.224 0 0 0 .073-.097.294.294 0 0 0 .021-.117.23.23 0 0 1 .028-.117 1.42 1.42 0 0 1 .105-.173l.126-.172c.051-.07.1-.129.147-.18s.079-.078.097-.082a1.11 1.11 0 0 1 .249-.055c.086-.01.168-.026.248-.049a1.74 1.74 0 0 0 .286-.124c.093-.05.184-.09.273-.117l.692-.186.622-.145.594-.093.51-.031c.224 0 .432.017.625.051s.367.087.521.156a1.703 1.703 0 0 1 .56.386zm.434 4.227a.56.56 0 0 1 .052-.213c.035-.083.087-.177.157-.283a7.27 7.27 0 0 0 .22-.324.674.674 0 0 0 .08-.152l.095-.2.136-.283c.047-.05.1-.16.161-.327l.21-.666.119-.265.153-.37c.019-.105.054-.23.105-.372l.196-.476.307-.49a.95.95 0 0 1 .462-.358c.079.05.14.101.181.152s.063.099.063.145c0 .115-.052.268-.157.458s-.157.321-.157.39c0 .037.02.071.063.103a1.14 1.14 0 0 0 .202-.165l.385-.373a3.9 3.9 0 0 1 .353-.293.773.773 0 0 1 .297-.141 1.4 1.4 0 0 1 .23-.062 2.26 2.26 0 0 0 .315-.09.8.8 0 0 0 .147-.096.567.567 0 0 1 .153-.083l.105.02c.042.042.159.085.35.128l.363.066a.84.84 0 0 1 .147.11 2.04 2.04 0 0 0 .217.166c.186.11.36.272.52.486s.307.48.437.796a5.5 5.5 0 0 1 .276.828 3.24 3.24 0 0 1 .094.759c0 .767-.097 1.434-.293 2s-.492 1.03-.888 1.393l-.136.134-.2.19v.076a.347.347 0 0 1-.08.148 1.708 1.708 0 0 1-.185.183l-.524.472-.545.466a4.062 4.062 0 0 1-.664.469c-.21.115-.412.195-.608.241a.857.857 0 0 1-.311.169 1.51 1.51 0 0 1-.45.059c-.262 0-.474-.018-.637-.052s-.28-.084-.35-.148a1.364 1.364 0 0 0-.146-.125 3.43 3.43 0 0 1-.196-.158c-.079-.06-.154-.17-.223-.328a3.367 3.367 0 0 1-.19-.617 7.187 7.187 0 0 1-.086-.548 4.21 4.21 0 0 1-.032-.493 1.25 1.25 0 0 1 .035-.228.877.877 0 0 0 .028-.241c0-.106-.005-.198-.014-.276 0-.083.026-.214.077-.393s.077-.322.077-.428a.233.233 0 0 0-.042-.103.98.98 0 0 0-.16.227.303.303 0 0 1-.099.104.202.202 0 0 1-.105.034.144.144 0 0 1-.122-.062.315.315 0 0 1-.045-.186c0-.055.012-.138.038-.248a1.22 1.22 0 0 0 .039-.256zm4.193-3.372a1.52 1.52 0 0 0-.343.041 2.305 2.305 0 0 0-.356.118l-.678.296a.77.77 0 0 0-.157.11 1.6 1.6 0 0 0-.192.207l-.322.394c-.102.12-.193.337-.272.655a10.02 10.02 0 0 0-.21 1.241 17.337 17.337 0 0 0-.126 2.028c0 .584.091 1.02.273 1.307s.456.43.824.43c.173 0 .366-.044.58-.134s.448-.226.7-.41a5.28 5.28 0 0 0 .565-.473 2.74 2.74 0 0 0 .406-.486c.046-.064.12-.2.22-.407l.416-.848a4.69 4.69 0 0 0 .272-.797 3.47 3.47 0 0 0 .098-.83 10.442 10.442 0 0 0-.09-.407l.048-.297a2.312 2.312 0 0 1-.119-.152 4.562 4.562 0 0 0-.034-.09c-.145-.496-.34-.87-.588-1.12a1.234 1.234 0 0 0-.915-.376zm3.397 3.372a.56.56 0 0 1 .052-.213c.035-.083.087-.177.157-.283a7.27 7.27 0 0 0 .22-.324.674.674 0 0 0 .08-.152l.095-.2.136-.283c.047-.05.1-.16.161-.327l.21-.666.119-.265.153-.37c.019-.105.054-.23.105-.372l.196-.476.307-.49a.95.95 0 0 1 .462-.358c.079.05.14.101.181.152s.063.099.063.145c0 .115-.052.268-.157.458s-.157.321-.157.39c0 .037.02.071.063.103a1.14 1.14 0 0 0 .202-.165l.385-.373a3.9 3.9 0 0 1 .353-.293.773.773 0 0 1 .297-.141 1.4 1.4 0 0 1 .23-.062 2.26 2.26 0 0 0 .315-.09.8.8 0 0 0 .147-.096.567.567 0 0 1 .153-.083l.105.02c.042.042.159.085.35.128l.363.066a.84.84 0 0 1 .147.11 2.04 2.04 0 0 0 .217.166c.186.11.36.272.52.486s.307.48.437.796a5.5 5.5 0 0 1 .276.828 3.24 3.24 0 0 1 .094.759c0 .767-.097 1.434-.293 2s-.492 1.03-.888 1.393l-.136.134-.2.19v.076a.347.347 0 0 1-.08.148 1.708 1.708 0 0 1-.185.183l-.524.472-.545.466a4.062 4.062 0 0 1-.664.469c-.21.115-.412.195-.608.241a.857.857 0 0 1-.311.169 1.51 1.51 0 0 1-.45.059c-.262 0-.474-.018-.637-.052s-.28-.084-.35-.148a1.364 1.364 0 0 0-.146-.125 3.43 3.43 0 0 1-.196-.158c-.079-.06-.154-.17-.223-.328a3.367 3.367 0 0 1-.19-.617 7.187 7.187 0 0 1-.086-.548 4.21 4.21 0 0 1-.032-.493 1.25 1.25 0 0 1 .035-.228.877.877 0 0 0 .028-.241c0-.106-.005-.198-.014-.276 0-.083.026-.214.077-.393s.077-.322.077-.428a.233.233 0 0 0-.042-.103.98.98 0 0 0-.16.227.303.303 0 0 1-.099.104.202.202 0 0 1-.105.034.144.144 0 0 1-.122-.062.315.315 0 0 1-.045-.186c0-.055.012-.138.038-.248a1.22 1.22 0 0 0 .039-.256zm4.193-3.372a1.52 1.52 0 0 0-.343.041 2.305 2.305 0 0 0-.356.118l-.678.296a.77.77 0 0 0-.157.11 1.6 1.6 0 0 0-.192.207l-.322.394c-.102.12-.193.337-.272.655a10.02 10.02 0 0 0-.21 1.241 17.337 17.337 0 0 0-.126 2.028c0 .584.091 1.02.273 1.307s.456.43.824.43c.173 0 .366-.044.58-.134s.448-.226.7-.41a5.28 5.28 0 0 0 .565-.473 2.74 2.74 0 0 0 .406-.486c.046-.064.12-.2.22-.407l.416-.848a4.69 4.69 0 0 0 .272-.797 3.47 3.47 0 0 0 .098-.83 10.442 10.442 0 0 0-.09-.407l.048-.297a2.312 2.312 0 0 1-.118-.152 4.562 4.562 0 0 0-.035-.09c-.145-.496-.34-.87-.588-1.12a1.234 1.234 0 0 0-.915-.376zm9.924 6.503l-.52.366-.73.455-.668.37-.486.23a2.56 2.56 0 0 1-.608.19c-.214.039-.433.058-.657.058a1.04 1.04 0 0 1-.234-.03 41.537 41.537 0 0 1-.584-.155 1.194 1.194 0 0 0-.21-.042l-.083-.083-.203-.027a.668.668 0 0 1-.318-.132 2.644 2.644 0 0 1-.402-.344 2.838 2.838 0 0 1-.339-.393 1.549 1.549 0 0 1-.185-.338l-.189-.593a9.748 9.748 0 0 1-.146-.49.85.85 0 0 1-.042-.242l.077-.31a6.55 6.55 0 0 1-.088-.262.595.595 0 0 1-.031-.159c0-.036.011-.149.035-.337l.098-.787a3.12 3.12 0 0 0 .21-.545l-.022-.151a.39.39 0 0 1 .025-.128c.016-.048.038-.102.066-.162l.322-.683.321-.669c.093-.165.213-.335.36-.51s.316-.356.507-.545a4.83 4.83 0 0 0 .153-.18l.217-.24a2.33 2.33 0 0 0 .29-.21l.409-.363c.047-.018.103-.044.168-.076l.237-.117a.563.563 0 0 0 .088-.069l.122-.103c.051-.046.238-.115.56-.207s.53-.138.628-.138c.215 0 .396.015.545.045s.268.077.357.141l.223.041c.187.042.324.182.413.421s.133.584.133 1.035l-.007.506a1.909 1.909 0 0 1-.021.259l-.095.52-.136.728a1.594 1.594 0 0 1-.094.362l-.228.625a6.149 6.149 0 0 1-.251.617c-.07.14-.128.217-.175.23l-.6.153a.674.674 0 0 1-.218-.025c-.042-.016-.062-.042-.062-.079a.76.76 0 0 1 .024-.152.746.746 0 0 0 .024-.144 261.32 261.32 0 0 1-.041-.532c0-.064.018-.19.055-.379l.168-.724.21-.762c.06-.186.11-.302.147-.348a1.5 1.5 0 0 0 .297-.355.641.641 0 0 0 .094-.307.605.605 0 0 0-.094-.338.586.586 0 0 0-.283-.221 17.149 17.149 0 0 0-.367-.08 4.08 4.08 0 0 1-.367-.092 2.235 2.235 0 0 1-.262.082l-.2.049c-.312.05-.611.193-.898.427s-.56.559-.82.973a6.243 6.243 0 0 0-.518 1.079 5.14 5.14 0 0 0-.266 1.086l-.07.41-.118.576.112.38-.07.627c0 .023.02.07.063.142l.195.313c.051.079.098.17.14.276s.075.226.098.359a.36.36 0 0 0 .14.193l.202.159c.2.211.414.37.64.479s.467.162.723.162c.023 0 .11-.011.262-.034l.626-.11c.046-.033.108-.065.185-.097l.276-.104a.904.904 0 0 1 .28-.196.673.673 0 0 1 .258-.059 6.43 6.43 0 0 1 .088-.117 1.46 1.46 0 0 1 .136-.152c.14-.055.268-.128.384-.217s.229-.194.336-.314l.28.634zm-.244-1.268a.67.67 0 0 1-.028-.207 1.2 1.2 0 0 1 .056-.39.694.694 0 0 1 .167-.272.643.643 0 0 1 .144-.083l.304-.131a.682.682 0 0 0 .213-.149.325.325 0 0 0 .087-.21.945.945 0 0 1 .084-.22l.147-.27c.018-.027.074-.186.168-.475l.39-1.276.14-.442.12-.317c.149-.39.27-.647.366-.769l.214-.3v-.034l-.217-.338.272-.31.35-.07c.07-.009.134-.073.192-.193s.16-.25.304-.393a.672.672 0 0 0 .157-.086c.073-.048.165-.116.276-.203a1.64 1.64 0 0 1 .252-.173.389.389 0 0 1 .16-.055c.127 0 .217.025.273.076s.084.117.084.2c0 .101-.053.248-.16.441s-.161.34-.161.442c0 .046.01.084.031.113s.046.05.074.059l.838.448c.047.019.089.091.126.218a2.97 2.97 0 0 1 .09.52l.067.459c.017.122.025.22.025.293l-.098.6.154.814-.091.827c0 .028.006.052.017.073a.08.08 0 0 0 .053.038c.079.004.138.025.178.062s.06.087.06.151a.422.422 0 0 1-.04.197.285.285 0 0 1-.107.114l-.144.096a.432.432 0 0 0-.073.07l.09.427-.125.98c0 .082-.007.188-.021.316a8.4 8.4 0 0 1-.063.449 4.007 4.007 0 0 0-.105.31.783.783 0 0 0-.035.166c.024.078.045.16.063.248l-.087.372-.087.366a.795.795 0 0 1-.203.355.424.424 0 0 1-.294.114.147.147 0 0 1-.136-.08.49.49 0 0 1-.045-.237 1.2 1.2 0 0 1 .024-.2c.016-.088.025-.154.025-.2a.834.834 0 0 0-.014-.131.884.884 0 0 1-.014-.145c0-.129.012-.335.038-.618l.038-.637a16.457 16.457 0 0 1-.07-.242 2.5 2.5 0 0 0 .029-.265 1.48 1.48 0 0 0-.007-.252l.104-.186-.09-.642-.05-.02a.376.376 0 0 0-.122.03 1.67 1.67 0 0 0-.199.1 2.033 2.033 0 0 1-.262.06 3.32 3.32 0 0 1-.472.037 5.176 5.176 0 0 1-.237.11 3.447 3.447 0 0 0-.406.121 20.67 20.67 0 0 0-.566.21 3.07 3.07 0 0 1-.346.142.873.873 0 0 1-.262.052.18.18 0 0 0-.14.062.464.464 0 0 0-.09.18 1.663 1.663 0 0 1-.102.303l-.213.482-.077.235-.112.393-.098.224-.125.314a1.41 1.41 0 0 1-.018.203 3.95 3.95 0 0 1-.052.28 8.05 8.05 0 0 1-.095.244l-.15.328a.352.352 0 0 1-.16.162.618.618 0 0 1-.273.052.228.228 0 0 1-.185-.08c-.045-.052-.067-.134-.067-.244 0-.12.014-.257.042-.41a3.81 3.81 0 0 1 .133-.508l.168-.593c.046-.151.072-.264.077-.338a2.55 2.55 0 0 0 .062-.172l.098-.304a4.08 4.08 0 0 0 .12-.393l-.036-.055-.223.035c-.052-.005-.089-.026-.112-.062a.267.267 0 0 1-.035-.145.43.43 0 0 1 .014-.107 1.35 1.35 0 0 1 .042-.141zm2.537-1.27c.107 0 .265-.025.475-.075s.368-.076.475-.076l.196.034.342-.079.343-.08a.187.187 0 0 0 .105-.051.142.142 0 0 0 .035-.1 5.062 5.062 0 0 1-.014-.283 2.66 2.66 0 0 1 .017-.293l.052-.334-.083-.31.028-.283a5.483 5.483 0 0 1-.046-.287.813.813 0 0 1-.003-.224 4.543 4.543 0 0 0-.27-.445 7.032 7.032 0 0 1-.143-.217.68.68 0 0 0-.21-.193.47.47 0 0 0-.23-.062c-.093 0-.189.073-.287.22s-.188.37-.272.67a2.422 2.422 0 0 1-.115.227 8.588 8.588 0 0 1-.27.448 2.477 2.477 0 0 1-.188.652c-.107.26-.257.565-.448.914a.183.183 0 0 0-.038.083.756.756 0 0 0-.003.076c0 .032.008.056.024.072s.04.024.073.024a2.57 2.57 0 0 0 .227-.014l.228-.013zm11.12-3.82l.156.241a1.71 1.71 0 0 1 .137.255c.06.148.095.29.104.428l.014.262a3.44 3.44 0 0 0-.02.228 3.44 3.44 0 0 1-.022.227 8.525 8.525 0 0 1-.052.435 9.41 9.41 0 0 0-.052.42 5.26 5.26 0 0 0-.025.428l-.024.414-.046.552-.045.537a3.455 3.455 0 0 0-.028.435c0 .142-.007.283-.021.42l-.105.773-.098.717a.273.273 0 0 1-.052.149.335.335 0 0 0-.06.148c0 .046.01.094.028.145a.39.39 0 0 1 .028.138l.004.106.003.114a.356.356 0 0 1-.02.121.337.337 0 0 0-.022.114c-.014.165-.132.335-.356.51s-.375.22-.454.138a.224.224 0 0 1-.06-.159 5.567 5.567 0 0 1-.003-.186.534.534 0 0 0-.018-.13.534.534 0 0 1-.017-.132 1.66 1.66 0 0 1 .017-.224c.012-.08.018-.162.018-.245a2.34 2.34 0 0 0-.014-.245 2.31 2.31 0 0 1-.014-.251 6.07 6.07 0 0 1 .06-.828l.08-.869.035-.662.042-.662.048-.607.042-.586.056-.907.042-.769c.01-.166.007-.303-.007-.414s-.046-.177-.098-.2a3.192 3.192 0 0 1-.223-.114 1.371 1.371 0 0 0-.203-.093 1.853 1.853 0 0 0-.262-.1 5.674 5.674 0 0 1-.22-.058 1.312 1.312 0 0 1-.21-.097.92.92 0 0 0-.21-.09.108.108 0 0 0-.073.014.155.155 0 0 1-.073.02c.009.02.003.032-.018.039s-.024.022-.01.045a.412.412 0 0 0 .112.11.47.47 0 0 1 .118.117.3.3 0 0 1 .053.183.33.33 0 0 0 .052.19l-.014.469-.035.462a8.41 8.41 0 0 1-.244 1.42 10.38 10.38 0 0 1-.434 1.304l-.405.914a7.12 7.12 0 0 1-.461.803c-.191.29-.387.554-.587.793s-.392.444-.573.614l-.207.183a1.31 1.31 0 0 1-.213.148.808.808 0 0 1-.188.069.61.61 0 0 0-.168.062l-.238.131a.384.384 0 0 1-.182.048.126.126 0 0 1-.083-.038.126.126 0 0 0-.084-.037.823.823 0 0 0-.196.01.432.432 0 0 1-.182-.004 1.339 1.339 0 0 1-.419-.193 1.205 1.205 0 0 1-.315-.317 1.259 1.259 0 0 1-.143-.265 1.848 1.848 0 0 1-.094-.321 5.772 5.772 0 0 1-.039-.27 2.206 2.206 0 0 1 .035-.772l.116-.42c.056-.157.11-.236.16-.238l.14-.004a.3.3 0 0 1 .13.052c.058.035.108.135.15.3a1.93 1.93 0 0 1 .024.2c.007.083.018.15.032.2.014.042.031.07.052.083a.152.152 0 0 1 .052.069c.024.069.047.12.07.155a1.964 1.964 0 0 1 .179.348.43.43 0 0 0 .094.166l.126.13a.44.44 0 0 0 .147.111.666.666 0 0 0 .227.055c.095.01.18.01.255 0a.618.618 0 0 0 .353-.196c.11-.113.234-.277.374-.493.153-.235.301-.516.443-.845s.27-.68.381-1.052l.252-.862c.088-.299.16-.6.217-.903l.178-1.221.073-1.145-.01-.272a3.33 3.33 0 0 1-.01-.259 6.414 6.414 0 0 1-.19-.017 1.86 1.86 0 0 0-.195-.01c-.065 0-.136-.004-.213-.01a6.975 6.975 0 0 0-.241-.018c-.028 0-.067-.036-.116-.107a1.415 1.415 0 0 1-.136-.259c-.028-.06-.027-.097.003-.113s.05-.064.06-.142c.004-.023-.021-.068-.077-.134a.402.402 0 0 1-.09-.142.627.627 0 0 0-.057-.162.445.445 0 0 1-.049-.148 1.015 1.015 0 0 1-.01-.241c.007-.056.031-.083.073-.083a2.42 2.42 0 0 1 .287.02l.328.049.584.141.611.19.507.183.472.182.44.183.3.128a1.52 1.52 0 0 1 .539.351l.22.21c.063.058.13.135.2.232zm1.369 3.227a.56.56 0 0 1 .052-.213 1.8 1.8 0 0 1 .158-.283 7.27 7.27 0 0 0 .22-.324.674.674 0 0 0 .08-.152l.094-.2.137-.283c.046-.05.1-.16.16-.327l.21-.666.119-.265.154-.37c.018-.105.053-.23.105-.372s.116-.3.195-.476l.308-.49a.95.95 0 0 1 .461-.358c.08.05.14.101.182.152s.063.099.063.145c0 .115-.053.268-.158.458s-.157.321-.157.39c0 .037.021.071.063.103a1.14 1.14 0 0 0 .203-.165l.384-.373a3.9 3.9 0 0 1 .353-.293.773.773 0 0 1 .297-.141c.06-.023.138-.044.23-.062a2.26 2.26 0 0 0 .315-.09.8.8 0 0 0 .147-.096.567.567 0 0 1 .154-.083l.105.02c.042.042.158.085.349.128l.363.066a.84.84 0 0 1 .147.11 2.04 2.04 0 0 0 .217.166c.186.11.36.272.52.486s.307.48.437.796c.122.29.214.566.276.828s.095.515.095.759c0 .767-.098 1.434-.294 2s-.491 1.03-.887 1.393l-.137.134-.199.19v.076a.347.347 0 0 1-.08.148 1.708 1.708 0 0 1-.185.183l-.525.472-.545.466a4.062 4.062 0 0 1-.664.469c-.21.115-.412.195-.608.241a.857.857 0 0 1-.31.169c-.124.039-.274.059-.451.059a3.21 3.21 0 0 1-.636-.052c-.164-.035-.28-.084-.35-.148a1.364 1.364 0 0 0-.147-.125 3.43 3.43 0 0 1-.195-.158c-.08-.06-.154-.17-.224-.328a3.367 3.367 0 0 1-.189-.617 7.187 7.187 0 0 1-.087-.548 4.21 4.21 0 0 1-.032-.493 1.25 1.25 0 0 1 .035-.228.877.877 0 0 0 .028-.241 2.22 2.22 0 0 0-.014-.276c0-.083.026-.214.077-.393a1.63 1.63 0 0 0 .077-.428.233.233 0 0 0-.042-.103.98.98 0 0 0-.16.227.303.303 0 0 1-.098.104.202.202 0 0 1-.105.034.144.144 0 0 1-.123-.062.315.315 0 0 1-.045-.186c0-.055.013-.138.038-.248a1.22 1.22 0 0 0 .039-.256zm4.193-3.372c-.112 0-.226.014-.342.041a2.305 2.305 0 0 0-.357.118l-.678.296a.77.77 0 0 0-.157.11 1.6 1.6 0 0 0-.192.207l-.321.394c-.103.12-.194.337-.273.655a10.02 10.02 0 0 0-.21 1.241 17.337 17.337 0 0 0-.126 2.028c0 .584.091 1.02.273 1.307s.457.43.825.43c.172 0 .366-.044.58-.134a3.53 3.53 0 0 0 .699-.41c.214-.157.403-.314.566-.473s.298-.32.405-.486c.047-.064.12-.2.22-.407l.416-.848c.117-.262.208-.528.273-.797s.098-.546.098-.83a10.441 10.441 0 0 0-.091-.407l.049-.297a2.312 2.312 0 0 1-.12-.152 4.562 4.562 0 0 0-.034-.09c-.145-.496-.34-.87-.587-1.12a1.234 1.234 0 0 0-.916-.376zm10.1-1.717c.079 0 .134.042.167.127a1.07 1.07 0 0 1 .049.37c0 .105-.019.295-.056.568l-.16 1.073.083.448a5.179 5.179 0 0 0-.21.841 15.69 15.69 0 0 1-.1.49l-.088.324-.102.397c-.03.122-.052.242-.066.362l-.13.824c-.053.26-.124.51-.212.748-.06.175-.153.508-.276 1l-.472 1.938c-.084.359-.177.628-.28.807s-.214.269-.335.269c-.06 0-.105-.014-.133-.041s-.047-.076-.056-.145a.268.268 0 0 1-.003-.076 4.49 4.49 0 0 0 .003-.241.463.463 0 0 0-.042-.152l.14-.538a1.06 1.06 0 0 0-.035-.193c0-.161.04-.486.122-.976l.353-1.969.161-.89a.345.345 0 0 0-.014-.117c-.01-.023-.028-.034-.056-.034a5.55 5.55 0 0 1-.16.069l-.175-.083a.744.744 0 0 0-.172.127c-.086.076-.15.114-.192.114-.088 0-.218-.015-.388-.045a2.429 2.429 0 0 0-.38-.044.798.798 0 0 0-.33.079 1.608 1.608 0 0 0-.362.238 2.419 2.419 0 0 0-.584.155c-.17.071-.32.162-.45.272l-.21.166c-.038.032-.065.146-.08.341s-.025.463-.025.804c0 .312.016.542.049.69s.081.22.146.22a.2.2 0 0 0 .112-.031.766.766 0 0 0 .119-.1 1.29 1.29 0 0 1 .098-.1.542.542 0 0 0 .09-.107l.057-.007c.032-.004.057.005.073.028a.179.179 0 0 1 .024.103 5.202 5.202 0 0 1-.251.483l-.427.641a.88.88 0 0 1-.3.256.876.876 0 0 1-.405.09c-.126 0-.22-.169-.283-.504s-.095-.837-.095-1.504a4 4 0 0 0-.049-.672 1.6 1.6 0 0 0-.16-.493 1.53 1.53 0 0 1-.147-.317.83.83 0 0 1-.042-.235c0-.05.013-.108.038-.172a.77.77 0 0 1 .116-.193l.143-.183a.297.297 0 0 0 .06-.12 2.05 2.05 0 0 0 .08-.29l.087-.414a3.46 3.46 0 0 0 .077-.449l.049-.696c.023-.515.072-.906.147-1.173s.104-.425.09-.475l-.041-.173a14.979 14.979 0 0 1 .118-.896.866.866 0 0 0 .14-.121 1.61 1.61 0 0 0 .16-.197l.525-.179c.168 0 .294.044.377.131s.126.212.126.372a.74.74 0 0 1-.038.194l-.095.31a3.407 3.407 0 0 0-.136.586l-.164 1.097-.136.907a8.98 8.98 0 0 1-.172.79.671.671 0 0 0-.02.116c0 .07.011.119.034.149s.059.045.105.045l.468-.042c.047 0 .208-.05.483-.152h.538c.074 0 .183-.008.325-.024l.318-.024a1.5 1.5 0 0 1 .297.045 1.51 1.51 0 0 0 .31.045c.057 0 .129-.01.218-.028s.195-.05.321-.096c.06 0 .112-.007.154-.021s.063-.034.063-.062a6.348 6.348 0 0 0 .174-.524 17.303 17.303 0 0 1 .105-.897l.144-.903.045-.497a.37.37 0 0 0-.014-.103.145.145 0 0 0-.049-.076 2.82 2.82 0 0 1-.126-.152.838.838 0 0 1 .105-.214l.273-.403a1.71 1.71 0 0 1 .45-.462c.105-.076.23-.15.374-.224z" stroke="#4a4a4a" stroke-width=".5" fill="#4a4a4a"/></svg>